{"title":"The Forbidden Girl 2013 BRRIP Xvid AC3-BHRG","uid":8829352,"size":1752273715,"categoryP":"video","categoryS":"movies","magnet":"?xt=urn:btih:d93821797a1009a50acf54cdddb319a9606aa27a&amp;dn=The+Forbidden+Girl+2013+BRRIP+Xvid+AC3-BHRG+&amp;tr=udp%3A%2F%2Ftracker.openbittorrent.com%3A80&amp;tr=udp%3A%2F%2Fopen.demonii.com%3A1337&amp;tr=udp%3A%2F%2Ftracker.coppersurfer.tk%3A6969&amp;tr=udp%3A%2F%2Fexodus.desync.com%3A6969","seeders":2,"leechers":1,"uploader":"R0thschild","files":3,"time":1376925880,"description":"Public Hash - Largest Bittorrent Community \nCrystal Clean files - Fast Speed! No Virus! No Fake! Enjoy!\n &lt;a href=&quot;\nhttp://www.imdb.com/title/tt1763305/&quot; rel=&quot;nofollow&quot; target=&quot;_NEW&quot;&gt;\nhttp://www.imdb.com/title/tt1763305/&lt;/a&gt;\n\nFile size                        : 1.61 GiB\nDuration                         : 1h 45mn\nOverall bit rate                 : 2 190 Kbps\n\nVideo\nID                               : 0\nFormat                           : MPEG-4 Visual\nFormat profile                   : Advanced Simple@L5\nFormat settings, BVOP            : 2\nFormat settings, QPel            : No\nFormat settings, GMC             : No warppoints\nFormat settings, Matrix          : Default (H.263)\nCodec ID                         : XVID\nCodec ID/Hint                    : XviD\nDuration                         : 1h 45mn\nBit rate                         : 1 799 Kbps\nWidth                            : 720 pixels\nHeight                           : 400 pixels\nDisplay aspect ratio             : 16:9\nFrame rate                       : 23.976 fps\nColor space                      : YUV\nChroma subsampling               : 4:2:0\nBit depth                        : 8 bits\nScan type                        : Progressive\nCompression mode                 : Lossy\nBits/(Pixel*Frame)               : 0.260\nStream size                      : 1.32 GiB (82%)\nWriting library                  : XviD 1.2.1 (UTC 2008-12-04)\n\nAudio\nID                               : 1\nFormat                           : AC-3\nFormat/Info                      : Audio Coding 3\nMode extension                   : CM (complete main)\nCodec ID                         : 2000\nDuration                         : 1h 45mn\nBit rate mode                    : Constant\nBit rate                         : 384 Kbps\nChannel(s)                       : 6 channels\nChannel positions                : Front: L C R, Side: L R, LFE\nSampling rate                    : 48.0 KHz\nBit depth                        : 16 bits\nCompression mode                 : Lossy\nStream size                      : 289 MiB (18%)\nAlignment                        : Aligned on interleaves\nInterleave, duration             : 64 ms (1.53 video frames)\nInterleave, preload duration     : 192 ms\nTitle                            : encounters-thfogi_720p - [0] English","torrent":{"xt":"urn:btih:d93821797a1009a50acf54cdddb319a9606aa27a","amp;dn":"The+Forbidden+Girl+2013+BRRIP+Xvid+AC3-BHRG+","amp;tr":["udp%3A%2F%2Ftracker.openbittorrent.com%3A80","udp%3A%2F%2Fopen.demonii.com%3A1337","udp%3A%2F%2Ftracker.coppersurfer.tk%3A6969","udp%3A%2F%2Fexodus.desync.com%3A6969"],"infoHash":"d93821797a1009a50acf54cdddb319a9606aa27a","infoHashBuffer":{"type":"Buffer","data":[217,56,33,121,122,16,9,165,10,207,84,205,221,179,25,169,96,106,162,122]},"announce":[],"urlList":[]}}